<?xml version="1.0" encoding="utf-8"?>
<!-- Generator: Adobe Illustrator 20.0.0, SVG Export Plug-In . SVG Version: 6.00 Build 0)  -->
<svg version="1.1" id="Layer_1" xmlns="http://www.w3.org/2000/svg" xmlns:xlink="http://www.w3.org/1999/xlink" x="0px" y="0px"
	 viewBox="0 0 631.5 195.8" style="enable-background:new 0 0 631.5 195.8;" xml:space="preserve">
<style type="text/css">
	.st0{fill:#080B0C;}
	.st1{fill:#FFFFFF;}
	.st2{fill:#0D77BD;}
	.st3{fill:#49176C;stroke:#FFFFFF;stroke-miterlimit:10;}
	.st4{fill:#49176C;}
	.st5{fill:#1C53A0;}
	.st6{fill:#0F3768;}
	.st7{fill:#1D6387;}
	.st8{fill:#278A5F;}
	.st9{fill:#2B81C5;}
	.st10{fill:#872175;}
	.st11{fill:#A80532;}
	.st12{fill:#30A290;}
	.st13{fill:#92278F;}
	.st14{fill:#FACD27;}
	.st15{fill:#8DC63F;}
	.st16{fill:#3DB7F1;}
	.st17{font-family:'OpenSans-Bold';}
	.st18{font-size:50px;}
</style>
<rect x="2.5" y="63.4" class="st0" width="626.1" height="106.6"/>
<g>
	<g>
		<path class="st0" d="M313.7,3.1c1.8,4.8,3.5,8.7,4.8,12.7c4.7,14.4,12.6,26.7,22.7,37.8c8.5,9.4,17,18.8,25.2,28.4
			c7.3,8.7,11.7,18.9,14,30c7.5,36.9-18.1,74.4-55.2,80.8c-40.1,6.9-76.8-20.3-81.2-60.7c-2-18.5,2.8-35.5,14.7-49.9
			c8.3-10,17.3-19.3,26.3-28.8c10.6-11.1,19-23.5,24-38.1C310.2,11.5,311.9,7.7,313.7,3.1z M313.4,38.3c-5.9,10.2-13,18.5-20.6,26.4
			c-6.6,6.8-13.1,13.8-19.4,20.8c-11.3,12.5-17.1,26.9-15.9,44.1c2.2,31.2,31.8,55,63,50.2c42.9-6.6,62.2-56.1,35-89.9
			c-4.5-5.6-9.1-11-14-16.2C331.2,62.8,321.1,52.1,313.4,38.3z"/>
		<path class="st1" d="M313.4,38.3c7.7,13.8,17.9,24.6,28,35.4c4.9,5.2,9.6,10.7,14,16.2c27.2,33.8,7.9,83.3-35,89.9
			c-31.2,4.8-60.8-19-63-50.2c-1.2-17.2,4.6-31.6,15.9-44.1c6.4-7,12.8-14,19.4-20.8C300.4,56.8,307.5,48.4,313.4,38.3z"/>
	</g>
</g>
<text transform="matrix(1 0 0 1 28.8167 137.2495)" class="st1 st17 st18">DRUPAL</text>
<text transform="matrix(1 0 0 1 394.7213 137.2492)" class="st1 st17 st18">NORTH</text>
<g>
	<path class="st4" d="M276.3,175.4c-0.9,0-1.6-0.3-2.2-1c-1-1.2-1.2-2.7-0.5-3.9c0.7-1.1,1.6-2,2.4-2.7c2.4-2.1,4.9-4.3,7.3-6.4
		c3.3-2.9,6.7-5.8,10-8.8c0.8-0.8,1.7-1.7,2.4-2.9c0.3-0.4,0.3-0.7,0.2-0.8c0-0.1-0.2-0.2-0.8-0.3c-0.2,0-0.3,0-0.5,0
		c-2,0-3.9,0.7-5.9,2.2c-0.2,0.2-0.5,0.4-0.7,0.6c-0.3,0.3-0.6,0.5-0.9,0.7c-0.7,0.5-1.4,0.8-2,0.8c-0.6,0-1.2-0.2-1.7-0.7
		c-1.1-1-1.5-2.4-1-3.8c0.3-0.8,0.9-1.6,1.5-2.1c3.2-2.6,6.7-4,10.5-4c0.2,0,0.4,0,0.7,0c2.4,0.1,4.3,1,5.5,2.7
		c1.7,2.3,1.9,4.7,0.6,7.2c-1.3,2.5-3.2,4.8-5.7,6.9c-2.6,2.3-5.2,4.7-7.5,6.8c-0.1,0.1-0.2,0.2-0.4,0.4c0.1,0,0.2,0,0.3,0l0,0
		c0.3,0,0.6,0,0.9-0.1l0.4,0l2.7-0.2c3.2-0.2,6.5-0.4,9.7-0.6c0.2,0,0.5,0,0.7,0c0.7,0,1.3,0.1,1.9,0.2c1.3,0.3,2.2,1.4,2.4,2.9
		c0.1,1.4-0.7,2.5-2.2,2.9c-0.9,0.2-1.8,0.3-2.7,0.4c-1.1,0-2.2,0-3.4,0l-2.2,0c-1.4,0-2.9,0-4.3,0c-4.9,0.1-8.7,0.9-12.1,2.5
		c-0.6,0.3-1.4,0.6-2.2,0.8C277.1,175.3,276.7,175.4,276.3,175.4z"/>
	<path class="st1" d="M294.4,143.4c0.2,0,0.4,0,0.6,0c1.9,0.1,3.6,0.7,4.8,2.3c1.4,1.9,1.6,4,0.5,6.1c-1.4,2.6-3.3,4.7-5.5,6.7
		c-2.5,2.2-5,4.5-7.5,6.8c-0.5,0.5-0.9,1-1.4,1.6c0.7,0.4,1.4,0.5,2,0.5c0.5,0,0.9-0.1,1.4-0.1c4.1-0.3,8.3-0.6,12.4-0.8
		c0.2,0,0.4,0,0.6,0c0.6,0,1.1,0,1.7,0.2c1,0.2,1.5,1,1.6,2c0.1,1-0.5,1.6-1.4,1.8c-0.8,0.2-1.7,0.3-2.5,0.3c-1.1,0-2.3,0-3.4,0
		c-0.7,0-1.4,0-2.1,0c-1.5,0-2.9,0-4.4,0c-4.3,0.1-8.5,0.7-12.5,2.6c-0.6,0.3-1.3,0.6-2,0.8c-0.3,0.1-0.6,0.1-0.9,0.1
		c-0.5,0-1-0.2-1.4-0.6c-0.7-0.8-0.9-1.9-0.4-2.8c0.6-0.9,1.4-1.7,2.2-2.5c5.7-5.1,11.5-10.1,17.3-15.2c1-0.9,1.8-2,2.5-3.1
		c0.9-1.4,0.3-2.5-1.4-2.6c-0.2,0-0.3,0-0.5,0c-2.4,0-4.6,1-6.5,2.4c-0.6,0.4-1.1,0.9-1.6,1.3c-0.5,0.3-0.9,0.6-1.4,0.6
		c-0.4,0-0.7-0.1-1.1-0.4c-0.8-0.7-1.1-1.7-0.7-2.7c0.2-0.6,0.7-1.3,1.2-1.7C287.4,144.8,290.7,143.4,294.4,143.4 M294.4,141.4
		c-4,0-7.7,1.4-11.1,4.2c-0.8,0.6-1.4,1.5-1.8,2.5c-0.7,1.7-0.2,3.6,1.2,4.9c0.7,0.6,1.5,1,2.4,1c0.9,0,1.7-0.3,2.6-1
		c0.4-0.3,0.7-0.5,1-0.8c0.2-0.2,0.4-0.4,0.7-0.6c1.8-1.3,3.5-2,5.2-2c-0.6,0.9-1.2,1.6-1.9,2.2c-3.3,2.9-6.7,5.9-10,8.8
		c-2.4,2.1-4.9,4.3-7.3,6.4c-0.8,0.7-1.8,1.7-2.6,2.9c-1,1.6-0.8,3.5,0.5,5.1c0.5,0.6,1.4,1.3,2.9,1.3c0.4,0,0.9-0.1,1.4-0.2
		c0.9-0.2,1.7-0.6,2.4-0.9c3.2-1.5,6.9-2.3,11.7-2.4c1.5,0,3,0,4.4,0l1.1,0l1.1,0c1.1,0,2.3,0,3.4,0c1,0,2-0.1,3-0.4
		c1.9-0.5,3.1-2.1,2.9-4c-0.2-1.9-1.4-3.3-3.1-3.8c-0.6-0.2-1.3-0.2-2.1-0.2c-0.3,0-0.5,0-0.8,0c-3.3,0.2-6.6,0.4-9.8,0.6l-1.5,0.1
		c1.8-1.6,3.9-3.5,5.8-5.2c2.6-2.3,4.5-4.6,5.9-7.2c1.5-2.8,1.3-5.7-0.6-8.3c-1.4-1.9-3.6-3-6.3-3.1
		C294.9,141.4,294.6,141.4,294.4,141.4L294.4,141.4z"/>
</g>
<path class="st4" d="M343.4,140.4c-3.5,0.5-6.5,1.5-9.3,2.7c-0.7,0.3-1.4,0.6-2.2,0.8c-1.8,0.5-3,0-3.4-1.4
	c-0.6-1.9,0.1-3.7,1.7-4.3c0.9-0.3,1.8-0.5,2.7-0.7c5-1,9.9-2.1,14.9-3.1c1.4-0.3,2.7-0.7,4.1-1.2c0.9-0.3,1.8-0.3,2.6,0.4
	c0.8,0.8,1,1.8,0.3,2.6c-0.5,0.6-1.1,1.1-1.7,1.5c-2.5,1.7-4.8,3.7-6.7,6.1c-3.7,4.5-7.3,9-10.2,14c-3.2,5.5-5,11.5-5.7,17.8
	c-0.1,0.7-0.2,1.5-0.5,2c-0.3,0.5-0.9,1-1.4,1c-0.5,0-1.2-0.7-1.3-1.1c-0.2-1.2-0.3-2.4-0.2-3.5c0.7-4.4,1.7-8.7,3.3-12.9
	c2-5.1,5-9.4,8.2-13.8C339.9,145.1,341.5,143,343.4,140.4z"/>
<path class="st4" d="M318.6,151c-0.5,5.5-2.7,10-7.4,12.9c-2.4,1.5-5.1,2-7.8,0.7c-1.5-0.7-2.6-1.8-3-3.6c-0.4-1.8-0.4-3.5,0-5.2
	c1.3-4.8,3.9-8.6,7.6-11.9c3.9-3.4,8.9-0.4,9.8,3C318.2,148.3,318.4,149.7,318.6,151z M314.5,150.5c0-0.3,0-0.6,0-0.8
	c-0.1-1.1-0.1-2.2-1.2-2.7c-1-0.5-1.9,0.3-2.7,0.8c-2.7,1.9-4.5,4.4-5.8,7.4c-0.5,1.1-0.8,2.4-1,3.6c-0.2,1.8,0.6,2.5,2.4,2.2
	c2.2-0.3,4.2-1.2,5.6-3.1C313.5,155.8,314.5,153.3,314.5,150.5z"/>
<path class="st4" d="M326.1,143.4c-0.2,6.2-0.6,12.3-3.2,18c-0.4,1-1.1,2-1.8,2.8c-0.3,0.3-1.1,0.6-1.5,0.4c-0.5-0.2-1-0.9-1-1.4
	c-0.1-0.8,0.2-1.7,0.4-2.5c1.6-5.4,2.6-11,2.2-16.7c-0.1-1.9-0.5-3.8-0.8-5.6c-0.3-2,0.7-3.4,2.5-3.6c1.5-0.2,2.3,0.3,2.5,1.9
	C325.8,139,325.9,141.2,326.1,143.4z"/>
<g>
	<g>
		<path class="st1" d="M334.3,91.7c0,0.1,0,0.2,0,0.3c-0.2,0-0.3-0.1-0.5-0.1C333.9,91.8,334.1,91.8,334.3,91.7
			C334.2,91.7,334.2,91.7,334.3,91.7C334.2,91.7,334.2,91.7,334.3,91.7z"/>
	</g>
	<g>
		<path class="st1" d="M293.6,91.9c0,0-0.1,0.1-0.1,0.2c-0.1,0-0.1-0.1-0.2-0.1C293.4,92,293.5,92,293.6,91.9z"/>
	</g>
	<g>
		<path class="st1" d="M335.1,91.9c-0.2,0.1-0.4,0.1-0.6,0.2c-0.1,0-0.1,0-0.2,0.1c0,0,0.1-0.1,0.1-0.1c-0.1,0-0.1,0-0.2,0
			c-0.2,0-0.3-0.1-0.5-0.1c0.2-0.1,0.3-0.1,0.5-0.2c0,0,0,0,0,0c0,0,0,0,0,0c0.1,0,0.2,0.1,0.4,0.1h0
			C334.8,91.8,335,91.9,335.1,91.9z"/>
	</g>
	<g>
		<path class="st1" d="M293.6,91.9c0,0-0.1,0.1-0.1,0.2c-0.1,0-0.1-0.1-0.2-0.1C293.4,92,293.5,92,293.6,91.9z"/>
	</g>
	<g>
		<path class="st1" d="M335.1,91.9c-0.2,0.1-0.4,0.1-0.6,0.2c0,0-0.1,0-0.1,0c-0.1,0-0.1,0-0.2,0c-0.2,0-0.3-0.1-0.5-0.1
			c0.2-0.1,0.3-0.1,0.5-0.2c0,0,0,0,0,0c0,0,0,0,0,0c0,0,0,0,0,0l0.6-0.2c-0.1,0.1-0.1,0.2-0.2,0.3C334.8,91.8,335,91.9,335.1,91.9z
			"/>
	</g>
	<g>
		<path class="st1" d="M377.5,101.1c-2.8-0.6-5.6-1.2-8.4-1.8c2.3-7.6,4.8-15.9,6.9-23c-0.1-0.1-7.4,2.6-16.4,6
			c-2.2-4.3-4.2-8.2-6.4-12.7c-6.5,7.3-12.6,14.4-18.4,21.9c-0.1,0.1-0.1,0.2-0.2,0.3c0.2,0,0.3,0.1,0.5,0.1
			c-0.2,0.1-0.4,0.1-0.6,0.2c-0.1,0-0.1,0-0.2,0.1c0,0,0.1-0.1,0.1-0.1c-0.1,0-0.1,0-0.2,0c-0.2,0-0.3-0.1-0.5-0.1
			c0.2-0.1,0.3-0.1,0.5-0.2c0,0,0,0,0,0c0,0,0,0,0,0c0,0,0,0,0,0c2.2-14.2,4.4-27.8,6.7-42.2c-4.7,2.4-9.3,4.8-13.9,7.1
			c-4.2-7.8-8.3-15.2-12.8-23.4c-7.6,14.1-15,27.3-21.6,41c-0.3,0.2-0.7,0.3-1,0.5c0,0.2,0,0.5,0,0.7c13.7,5.8,27.4,11.7,41.4,17.7
			c0.3,1.2,0.7,2.9,1.3,4.9c-9.7,6-19,11.8-28.4,17.6c-0.1-0.7-0.3-1.5-0.4-2.2c8.6-5.3,17.1-10.6,25.7-16c0.6-0.3,0.9-0.9,1.5-1.5
			c-5.5-3.1-39.3-17.2-42-17.5c0.6,3.8,1.2,7.7,1.8,11.5c-5.6-6.6-11.3-13.6-17.2-20.5c-2.3,4.5-4.5,8.8-6.8,13.2
			c-7.7-2.8-14.4-5.1-15.6-5.1c2.1,7.1,4.4,14.7,6.5,21.8c-2.9,0.6-5.7,1.2-8.6,1.9c0,0.4,22.4,18.6,32.3,27
			c1.8-5.5,3.4-10.4,5.2-15.6c3,0.8,5.7,1.5,8.2,2.1c0.2,1.2,0.4,2.5,0.6,3.7c0.9-0.4,1.4-0.6,1.8-0.9c0.9-0.5,1.8-1.1,2.6-1.6
			c1.2,0.3,2.2,0.5,3,0.6c-1.6,1-3.3,2-4.9,3c0.1,0.2,0.1,0.4,0.1,0.7c15.5,4.3,31,8.7,47.2,13.2c-0.5-1.7-1.1-3.3-1.6-4.9
			c5.3-4.5,10.6-8.9,15.8-13.4C366.6,110.7,372.1,106.4,377.5,101.1z M293.5,92.1c-0.1,0-0.1-0.1-0.2-0.1c0.1,0,0.2,0,0.3-0.1
			C293.6,92,293.6,92,293.5,92.1z"/>
	</g>
	<g>
		<path class="st1" d="M293.6,91.9c0,0-0.1,0.1-0.1,0.2c-0.1,0-0.1-0.1-0.2-0.1C293.4,92,293.5,92,293.6,91.9z"/>
	</g>
	<g>
		<path class="st1" d="M335.1,91.9c-0.2,0.1-0.4,0.1-0.6,0.2c-0.1,0-0.1,0-0.2,0.1c0,0,0.1-0.1,0.1-0.1c0.1-0.1,0.1-0.2,0.2-0.3h0
			C334.8,91.8,335,91.9,335.1,91.9z"/>
	</g>
	<g>
		<path class="st1" d="M287.8,49.5c4.7,2.4,8.8,4.4,13.4,6.8c-3.1,5.7-6,11.1-9,16.5c-0.2,0-0.5-0.1-0.7-0.1
			C290.3,65.2,289.1,57.7,287.8,49.5z"/>
	</g>
</g>
<g>
	<g>
		<path class="st5" d="M339.4,51.3c-2.2,13.6-4.2,26.5-6.3,39.8c-13-5.5-25.6-10.9-38.2-16.3c0-0.2,0-0.4,0-0.7
			C309.4,66.6,324,59.1,339.4,51.3z"/>
	</g>
	<g>
		<path class="st4" d="M339.9,127.9c-19.4,3.7-38.8,7.4-58.2,11.1c-0.3,0.1-0.7-0.1-1.4-0.3c2.9-8.6,5.7-17.1,8.6-26
			c17.1,4.8,34.1,9.5,51,14.3C339.9,127.3,339.9,127.6,339.9,127.9z"/>
	</g>
	<g>
		<path class="st6" d="M298.9,112.8c-1.9-12.2-3.8-24.1-5.8-36.1c2.5,0.2,33.1,13,38.1,15.8c-0.5,0.5-0.8,1-1.3,1.3
			c-9.8,6.1-19.5,12.1-29.3,18.2C300.1,112.2,299.7,112.4,298.9,112.8z"/>
	</g>
	<g>
		<path class="st7" d="M344,126.3c-14.7-4.1-28.7-8-42.7-11.9c0-0.2-0.1-0.4-0.1-0.6c10.5-6.5,21-13.1,32-19.9
			c2.2,5.4,3.7,10.7,5.5,15.9C340.4,115.1,342.1,120.4,344,126.3z"/>
	</g>
	<g>
		<path class="st8" d="M335.9,93.9c12.5,2.7,24.9,5.4,37.9,8.2c-4.6,4.5-9.3,8.1-13.8,11.9c-4.5,3.9-9.1,7.7-13.7,11.6
			C344.8,123.6,335.9,96.5,335.9,93.9z"/>
	</g>
	<g>
		<path class="st9" d="M325.4,56.1c-10.2,5.2-20.1,10.3-30.1,15.4c5.8-12,12.2-23.6,18.9-35.9C318.1,42.8,321.7,49.4,325.4,56.1z"/>
	</g>
	<g>
		<path class="st10" d="M257.3,101.5c12.4-2.7,24.3-5.3,36.7-8c1,6.5,2,12.7,3,18.9C294.6,112.7,260.4,103.3,257.3,101.5z"/>
	</g>
	<g>
		<path class="st11" d="M290.6,92.4c-10.1,2.2-19.7,4.3-29.6,6.4c-1.9-6.5-3.8-12.8-5.7-19.2C257.8,79.7,287.9,90.6,290.6,92.4z"/>
	</g>
	<g>
		<path class="st12" d="M373.3,78.8c-1.8,6.1-3.9,13.3-5.8,19.7c-9.9-1.7-19.3-4.1-29-6.7C349.7,87.7,373.1,78.6,373.3,78.8z"/>
	</g>
	<g>
		<path class="st13" d="M282.5,126.1c-8.6-7.3-26.8-22.7-26.7-22.9c9.7,2.5,21.3,6.3,31.2,9.1C285.5,116.9,284.1,121.2,282.5,126.1z
			"/>
	</g>
	<g>
		<path class="st14" d="M275.8,72.2c5,5.8,9.7,11.3,14.5,16.8c-0.1,0.2-0.2,0.3-0.3,0.5c-6.3-2.3-12.7-4.6-19.4-7.1
			C272.4,78.9,274,75.7,275.8,72.2z"/>
	</g>
	<g>
		<path class="st15" d="M352.8,72.1c1.8,3.5,3.4,6.7,5.1,10.1c-6.5,2.8-13,4.8-19.5,7C342.9,83.4,347.7,77.9,352.8,72.1z"/>
	</g>
	<g>
		<path class="st16" d="M289.4,51.7c3.7,1.9,7,3.5,10.6,5.3c-2.5,4.5-4.8,8.8-7.1,13c-0.2,0-0.4-0.1-0.6-0.1
			C291.4,64.1,290.5,58.2,289.4,51.7z"/>
	</g>
</g>
</svg>
