<svg xmlns="http://www.w3.org/2000/svg" viewBox="-218 699 300 300"><path fill="#0b77be" d="M-144.7 814.8c-31.3 38.7-28.9 95.5 7.1 131.5 38.5 38.5 100.9 38.5 139.4 0 36-36 38.3-92.8 7.1-131.5-29.5-37.6-59.1-54.8-76.7-101.2-17.8 46.5-47.4 63.7-76.9 101.2z"/><path fill="#0b77be" stroke="#040404" stroke-width="12" stroke-miterlimit="10" d="M-144.7 814.8c-31.3 38.7-28.9 95.5 7.1 131.5 38.5 38.5 100.9 38.5 139.4 0 36-36 38.3-92.8 7.1-131.5-29.5-37.6-59.1-54.8-76.7-101.2-17.8 46.5-47.4 63.7-76.9 101.2z"/><path fill="#FFF" d="M-68 799.8l-11.3 22.7c-1.3 2.5-3.6 2.2-5.9.9l-8.2-4.6 6.1 34.8c1.3 6.4-2.8 6.4-4.9 3.6l-14.2-17.2-2.3 8.7c-.3 1.1-1.4 2.3-3.2 2.1l-18-4.1 4.7 18.5c1 4.1 1.8 5.8-1 6.9l-6.4 3.3 31 27.1c1.2 1 1.8 2.9 1.4 4.5l-2.7 9.6c10.7-1.3 20.2-3.3 30.9-4.5.9-.1 2.5 1.6 2.5 2.7l-1.4 35.2h5.2l-.8-35.1c0-1.2 1.4-2.9 2.4-2.8 10.7 1.2 20.3 3.2 30.9 4.5l-2.7-9.6c-.4-1.7.2-3.5 1.4-4.5l31-27.1-6.4-3.3c-2.8-1.1-2-2.8-1-6.9l4.7-18.5-18 4.1c-1.8.3-2.9-.9-3.2-2.1l-2.3-8.7-14.2 17.2c-2 2.7-6.1 2.7-4.9-3.6l6.1-34.8-8.2 4.6c-2.3 1.4-4.6 1.6-5.9-.9"/></svg>