<?xml version="1.0" encoding="utf-8"?>
<!-- Generator: Adobe Illustrator 20.0.0, SVG Export Plug-In . SVG Version: 6.00 Build 0)  -->
<svg version="1.1" id="Layer_1" xmlns="http://www.w3.org/2000/svg" xmlns:xlink="http://www.w3.org/1999/xlink" x="0px" y="0px"
	 viewBox="0 0 240.9 77.9" style="enable-background:new 0 0 240.9 77.9;" xml:space="preserve">
<style type="text/css">
	.st0{fill:#2BA9E0;}
</style>
<path class="st0" d="M79.9,51.6c0,3.5-1.5,6.2-5,6.2c-3.5,0-5-2.8-5-6.2V39.8h-6.4v11.8C63.6,58.4,68,64,74.9,64
	c6.9,0,11.4-5.5,11.4-12.4V39.8h-6.4L79.9,51.6z M143.8,32.6h6.3v30.8h-6.3V32.6z M154.8,33.7h1.8v4.9h1.3v-4.9h1.8v-1.1h-4.9
	L154.8,33.7z M165.1,32.6l-1.3,4.1h0l-1.4-4.1h-1.9v6h1.2v-4.2h0l1.5,4.2h1l1.5-4.2h0v4.2h1.2v-6H165.1z M49.3,43.9
	c-0.1,0.1-0.1,0.2-0.3,0.2c-0.2,0-0.2-0.2-0.2-0.2l-0.7-4.1h-5.7v23.5h6.4V50.6c0-1,2.8-6,8.3-4.7c2.8,0.7,3.9,1.8,3.9,1.8v-7.2
	c-1-0.5-1.7-0.8-2.7-1C52.9,38.3,49.5,43.7,49.3,43.9z M101.1,39.3c-6.9,0-12.6,5.6-12.6,12.4v19.3h6.4v-8.5l0-3.2
	c0,0,0-0.3,0.2-0.3c0.2,0,0.2,0.1,0.3,0.3c0.5,1.2,3.1,5.7,9,4.3c5.3-1.5,9.1-6.3,9.1-12C113.7,44.9,108.1,39.3,101.1,39.3z
	 M101.1,58.1c-3.5,0-6.4-2.8-6.4-6.3c0-3.5,2.8-6.3,6.4-6.3c3.5,0,6.4,2.8,6.4,6.3C107.5,55.3,104.6,58.1,101.1,58.1z M128.7,39.3
	c-6.9,0-12.6,5.6-12.6,12.4c0,5.7,3.9,10.5,9.2,12c5.9,1.4,8.6-3.1,9-4.3c0.1-0.1,0.1-0.3,0.3-0.3c0.2,0,0.2,0.3,0.2,0.3l0,3.9h6.4
	V51.8C141.2,44.9,135.6,39.3,128.7,39.3z M128.7,58.1c-3.5,0-6.4-2.8-6.4-6.3c0-3.5,2.8-6.3,6.4-6.3c3.5,0,6.4,2.8,6.4,6.3
	C135,55.3,132.2,58.1,128.7,58.1z M23,32.6h-7.8v30.7h7.2c9.5,0,17.1-1.8,17.1-15.4C39.6,34.3,32.4,32.6,23,32.6z M24.3,58L21.6,58
	V37.9h2.6c5.9,0,8.9,0.8,8.9,10C33.2,57.5,29.7,58,24.3,58z"/>
<g>
	<circle class="st0" cx="211.4" cy="52.9" r="7.3"/>
	<path class="st0" d="M220.4,44.2c2.2,2.3,3.5,5.4,3.5,8.7c0,4.3-2.1,8-5.4,10.3c6-1.9,11-6.4,13.2-11.9c3.1-7.6,0.2-13.3-4.6-18.4
		c0.1,0.7,0.2,1.4,0.2,2.1C227.4,39.4,224.4,43.1,220.4,44.2L220.4,44.2z"/>
	<circle class="st0" cx="217.8" cy="35" r="5.6"/>
	<path class="st0" d="M201.7,61c-1.9-2.3-3-5.1-3-8.1c0-6.4,4.8-11.7,11.1-12.5c-1.1-1.6-1.7-3.5-1.7-5.4c0-5.3,4.3-9.6,9.6-9.6
		c0.4,0,0.9,0,1.3,0.1c-3.1-2.7-6.3-5.5-8.8-8.5c1.3,13.2-12,8.4-16.9,20.5C190.1,45.7,193.1,55.7,201.7,61z"/>
</g>
</svg>
